<svg width="530" height="530" viewBox="0 0 530 530" fill="none" xmlns="http://www.w3.org/2000/svg">
<g clip-path="url(#clip0_32_32)">
<path d="M50.9679 446.479L46.3001 428.124C38.024 424.627 29.5565 421.598 20.9382 419.052L20.349 427.582L17.9596 418.184C7.27137 415.138 0 413.798 0 413.798C0 413.798 9.81944 451.035 30.4218 479.503L54.4254 483.708L35.7777 486.388C38.3692 489.497 41.1543 492.441 44.1164 495.201C74.0835 522.934 107.462 535.658 118.668 523.621C129.874 511.583 114.666 479.344 84.6985 451.614C75.4084 443.016 63.7382 436.117 52.0559 430.685L50.9679 446.479Z" fill="#F2F2F2"/>
<path d="M95.359 426.542L100.879 408.425C95.6079 401.166 89.9302 394.209 83.873 387.588L78.9462 394.586L81.7725 385.31C74.2009 377.197 68.6714 372.302 68.6714 372.302C68.6714 372.302 57.7739 409.24 60.6486 444.228L79.0174 460.197L61.6611 452.881C62.2684 456.879 63.1273 460.834 64.2327 464.724C75.508 503.909 97.4844 532.003 113.318 527.474C129.151 522.945 132.847 487.509 121.572 448.324C118.077 436.176 111.663 424.256 104.478 413.586L95.359 426.542Z" fill="#F2F2F2"/>
<path d="M369.831 125.557H366.919V46.03C366.919 39.9853 365.725 33.9997 363.405 28.4151C361.085 22.8305 357.684 17.7562 353.397 13.4819C349.11 9.2076 344.021 5.81705 338.419 3.50382C332.818 1.1906 326.815 0 320.752 0H151.753C139.508 0 127.765 4.84958 119.107 13.4819C110.449 22.1142 105.585 33.8221 105.585 46.03V482.33C105.585 488.375 106.779 494.361 109.099 499.945C111.419 505.53 114.82 510.604 119.107 514.879C123.394 519.153 128.484 522.543 134.085 524.857C139.686 527.17 145.69 528.36 151.753 528.36H320.752C332.996 528.36 344.739 523.511 353.397 514.878C362.055 506.246 366.919 494.538 366.919 482.33V182.166H369.83L369.831 125.557Z" fill="#E6E6E6"/>
<path d="M322.615 11.9709H300.556C301.571 14.4508 301.958 17.1414 301.684 19.8057C301.41 22.4699 300.483 25.026 298.984 27.2488C297.486 29.4716 295.462 31.2929 293.091 32.5521C290.72 33.8114 288.075 34.47 285.389 34.4699H188.571C185.885 34.4697 183.24 33.811 180.87 32.5516C178.499 31.2923 176.475 29.471 174.977 27.2482C173.479 25.0255 172.552 22.4694 172.278 19.8053C172.003 17.1412 172.391 14.4507 173.405 11.9709H152.801C143.657 11.9709 134.888 15.5926 128.422 22.0391C121.956 28.4856 118.324 37.229 118.324 46.3457V482.013C118.324 491.129 121.956 499.873 128.422 506.319C134.888 512.766 143.657 516.387 152.801 516.387H322.615C331.759 516.387 340.528 512.766 346.994 506.319C353.46 499.873 357.092 491.129 357.092 482.013V46.345C357.092 37.2284 353.46 28.4852 346.994 22.0388C340.528 15.5925 331.759 11.9709 322.615 11.9709Z" fill="white"/>
<path d="M216.069 185.519C216.069 182.473 216.873 179.482 218.4 176.845C219.928 174.208 222.126 172.018 224.772 170.497C222.127 168.974 219.127 168.172 216.073 168.172C213.018 168.172 210.018 168.973 207.373 170.495C204.728 172.017 202.531 174.207 201.004 176.844C199.477 179.481 198.673 182.472 198.673 185.517C198.673 188.562 199.477 191.554 201.004 194.191C202.531 196.828 204.728 199.018 207.373 200.54C210.018 202.062 213.018 202.863 216.073 202.863C219.127 202.863 222.127 202.061 224.772 200.538C222.126 199.017 219.928 196.828 218.401 194.192C216.873 191.555 216.069 188.564 216.069 185.519Z" fill="#CCCCCC"/>
<path d="M237.94 185.519C237.94 182.473 238.744 179.482 240.271 176.844C241.799 174.207 243.997 172.018 246.643 170.497C243.998 168.974 240.998 168.172 237.944 168.172C234.889 168.172 231.889 168.973 229.244 170.495C226.599 172.017 224.402 174.207 222.875 176.844C221.348 179.481 220.544 182.472 220.544 185.517C220.544 188.562 221.348 191.554 222.875 194.191C224.402 196.828 226.599 199.018 229.244 200.54C231.889 202.062 234.889 202.863 237.944 202.863C240.998 202.863 243.998 202.061 246.643 200.538C243.997 199.017 241.799 196.828 240.272 194.192C238.744 191.555 237.94 188.564 237.94 185.519Z" fill="#CCCCCC"/>
<path d="M259.315 202.863C268.923 202.863 276.712 195.097 276.712 185.518C276.712 175.938 268.923 168.172 259.315 168.172C249.706 168.172 241.917 175.938 241.917 185.518C241.917 195.097 249.706 202.863 259.315 202.863Z" fill="#FFB800"/>
<path d="M288.39 239.695H186.994C186.028 239.694 185.103 239.311 184.42 238.63C183.738 237.95 183.354 237.027 183.353 236.065V134.971C183.354 134.008 183.738 133.086 184.42 132.405C185.103 131.725 186.028 131.342 186.994 131.341H288.39C289.356 131.342 290.281 131.725 290.964 132.405C291.646 133.086 292.03 134.008 292.031 134.971V236.065C292.03 237.027 291.646 237.95 290.964 238.63C290.281 239.311 289.356 239.694 288.39 239.695ZM186.994 132.793C186.415 132.794 185.859 133.024 185.45 133.432C185.04 133.84 184.81 134.394 184.809 134.971V236.065C184.81 236.643 185.04 237.197 185.45 237.605C185.859 238.013 186.415 238.243 186.994 238.243H288.39C288.969 238.243 289.525 238.013 289.934 237.605C290.344 237.197 290.574 236.643 290.575 236.065V134.971C290.574 134.394 290.344 133.84 289.934 133.432C289.525 133.024 288.969 132.794 288.39 132.793H186.994Z" fill="#CCCCCC"/>
<path d="M311.03 317.188H155.519V318.64H311.03V317.188Z" fill="#CCCCCC"/>
<path d="M160.43 308.122C163.142 308.122 165.341 305.929 165.341 303.225C165.341 300.521 163.142 298.329 160.43 298.329C157.718 298.329 155.519 300.521 155.519 303.225C155.519 305.929 157.718 308.122 160.43 308.122Z" fill="#FFB800"/>
<path d="M311.03 366.15H155.519V367.603H311.03V366.15Z" fill="#CCCCCC"/>
<path d="M160.43 357.085C163.142 357.085 165.341 354.892 165.341 352.188C165.341 349.484 163.142 347.292 160.43 347.292C157.718 347.292 155.519 349.484 155.519 352.188C155.519 354.892 157.718 357.085 160.43 357.085Z" fill="#FFB800"/>
<path d="M308.185 421.906H259.039C258.19 421.905 257.376 421.569 256.776 420.97C256.175 420.372 255.838 419.56 255.837 418.714V401.54C255.838 400.693 256.175 399.882 256.776 399.283C257.376 398.685 258.19 398.348 259.039 398.347H308.185C309.034 398.348 309.847 398.685 310.448 399.283C311.048 399.882 311.386 400.693 311.387 401.54V418.714C311.386 419.56 311.048 420.372 310.448 420.97C309.847 421.569 309.034 421.905 308.185 421.906Z" fill="#FFB800"/>
<path d="M176.45 308.122C179.162 308.122 181.361 305.929 181.361 303.225C181.361 300.521 179.162 298.329 176.45 298.329C173.737 298.329 171.539 300.521 171.539 303.225C171.539 305.929 173.737 308.122 176.45 308.122Z" fill="#FFB800"/>
<path d="M192.47 308.122C195.182 308.122 197.381 305.929 197.381 303.225C197.381 300.521 195.182 298.329 192.47 298.329C189.758 298.329 187.559 300.521 187.559 303.225C187.559 305.929 189.758 308.122 192.47 308.122Z" fill="#FFB800"/>
<path d="M176.45 357.085C179.162 357.085 181.361 354.892 181.361 352.188C181.361 349.484 179.162 347.292 176.45 347.292C173.737 347.292 171.539 349.484 171.539 352.188C171.539 354.892 173.737 357.085 176.45 357.085Z" fill="#FFB800"/>
<path d="M192.47 357.085C195.182 357.085 197.381 354.892 197.381 352.188C197.381 349.484 195.182 347.292 192.47 347.292C189.758 347.292 187.559 349.484 187.559 352.188C187.559 354.892 189.758 357.085 192.47 357.085Z" fill="#FFB800"/>
<path d="M528.021 530H17.1342C16.0406 530 15.1547 529.613 15.1547 529.136C15.1547 528.659 16.0406 528.271 17.1342 528.271H528.021C529.113 528.271 530 528.658 530 529.136C530 529.613 529.113 530 528.021 530Z" fill="#3F3D56"/>
<path d="M401.798 347.239C402.147 347.399 402.483 347.585 402.802 347.798L434.717 334.217L435.856 325.835L448.608 325.757L447.855 344.982L405.731 356.088C405.642 356.38 405.536 356.667 405.413 356.946C404.804 358.241 403.824 359.329 402.597 360.071C401.371 360.814 399.951 361.178 398.517 361.119C397.083 361.06 395.699 360.58 394.538 359.738C393.377 358.897 392.491 357.733 391.991 356.392C391.492 355.05 391.401 353.591 391.73 352.199C392.059 350.806 392.794 349.541 393.842 348.564C394.89 347.586 396.204 346.938 397.619 346.703C399.035 346.467 400.489 346.654 401.798 347.239Z" fill="#FFB8B8"/>
<path d="M453.246 521.447H444.522L440.373 487.899L453.247 487.9L453.246 521.447Z" fill="#FFB8B8"/>
<path d="M438.291 518.962H455.115V529.523H427.698C427.698 526.722 428.814 524.036 430.801 522.055C432.787 520.075 435.482 518.962 438.291 518.962Z" fill="#2F2E41"/>
<path d="M487.173 518.99L478.491 519.842L471.062 486.862L483.875 485.604L487.173 518.99Z" fill="#FFB8B8"/>
<path d="M472.046 517.978L488.789 516.334L489.827 526.844L462.543 529.524C462.406 528.143 462.544 526.75 462.948 525.423C463.352 524.096 464.014 522.861 464.896 521.789C465.779 520.716 466.864 519.828 468.091 519.174C469.318 518.52 470.662 518.114 472.046 517.978Z" fill="#2F2E41"/>
<path d="M455.674 290.253C465.326 290.253 473.151 282.452 473.151 272.829C473.151 263.206 465.326 255.404 455.674 255.404C446.022 255.404 438.198 263.206 438.198 272.829C438.198 282.452 446.022 290.253 455.674 290.253Z" fill="#FFB8B8"/>
<path d="M442.573 514.663C441.823 514.665 441.097 514.403 440.522 513.923C439.947 513.443 439.561 512.776 439.431 512.04C434.916 487.05 420.157 405.338 419.804 403.074C419.796 403.022 419.792 402.97 419.793 402.917V396.824C419.792 396.602 419.862 396.386 419.991 396.206L421.941 393.483C422.034 393.352 422.155 393.244 422.297 393.167C422.438 393.09 422.594 393.047 422.755 393.04C433.871 392.52 470.276 390.997 472.034 393.188C473.801 395.39 473.177 402.061 473.034 403.376L473.041 403.513L489.396 507.796C489.524 508.627 489.318 509.476 488.824 510.158C488.329 510.839 487.585 511.299 486.753 511.438L476.537 513.116C475.776 513.238 474.997 513.084 474.341 512.681C473.684 512.279 473.195 511.654 472.961 510.922C469.802 500.857 459.208 466.996 455.536 453.893C455.513 453.81 455.46 453.739 455.388 453.691C455.316 453.644 455.229 453.625 455.144 453.637C455.058 453.649 454.98 453.692 454.924 453.757C454.868 453.822 454.837 453.906 454.838 453.992C455.022 466.482 455.465 498.348 455.618 509.354L455.635 510.539C455.641 511.342 455.346 512.118 454.807 512.713C454.267 513.309 453.524 513.682 452.722 513.757L442.872 514.65C442.772 514.659 442.672 514.663 442.573 514.663Z" fill="#2F2E41"/>
<path d="M444.583 297.104C441.533 298.912 439.708 302.234 438.661 305.614C436.722 311.872 435.555 318.342 435.185 324.882L434.078 344.462L420.377 396.371C432.252 406.389 439.102 404.112 455.087 395.918C471.072 387.724 472.899 398.65 472.899 398.65L476.096 354.482L480.663 306.218C479.638 304.987 478.477 303.875 477.203 302.902C472.982 299.629 468.071 297.354 462.839 296.249C457.608 295.144 452.194 295.236 447.003 296.52L444.583 297.104Z" fill="#FFB800"/>
<path d="M440.133 357.723C440.501 357.861 440.858 358.028 441.2 358.222L472.757 342.475L473.28 333.944L486.297 333.049L486.995 352.496L444.824 366.401C444.48 367.873 443.694 369.206 442.571 370.223C441.448 371.239 440.042 371.891 438.539 372.091C437.035 372.291 435.507 372.03 434.156 371.342C432.805 370.655 431.696 369.574 430.977 368.243C430.257 366.912 429.961 365.394 430.128 363.891C430.294 362.389 430.916 360.972 431.91 359.83C432.904 358.688 434.223 357.875 435.692 357.498C437.161 357.122 438.709 357.2 440.133 357.723Z" fill="#FFB8B8"/>
<path d="M480.434 306.439C488.198 309.171 489.566 338.77 489.566 338.77C480.432 333.762 469.471 341.958 469.471 341.958C469.471 341.958 467.187 334.217 464.447 324.199C463.619 321.382 463.52 318.401 464.159 315.535C464.798 312.669 466.154 310.01 468.1 307.807C468.1 307.807 472.67 303.705 480.434 306.439Z" fill="#FFB800"/>
<path d="M471.345 277.437C469.167 275.7 466.196 278.857 466.196 278.857L464.454 263.226C464.454 263.226 453.567 264.526 446.599 262.792C439.631 261.057 438.542 269.088 438.542 269.088C438.183 265.844 438.11 262.575 438.325 259.318C438.76 255.411 444.422 251.503 454.438 248.897C464.454 246.292 469.68 257.581 469.68 257.581C476.649 261.055 473.522 279.174 471.345 277.437Z" fill="#1F1E28"/>
</g>
<defs>
<clipPath id="clip0_32_32">
<rect width="530" height="530" fill="white"/>
</clipPath>
</defs>
</svg>
